<?xml version="1.0" standalone="no"?>
<!DOCTYPE svg PUBLIC "-//W3C//DTD SVG 1.1//EN"
   "http://www.w3.org/Graphics/SVG/1.1/DTD/svg11.dtd">
<svg width="12544" height="12544" version="1.1"
   xmlns="http://www.w3.org/2000/svg">
   <desc>Zint Generated Symbol
   </desc>

   <g id="barcode" fill="#000000">
      <rect x="0" y="0" width="12544" height="12544" fill="#FFFFFF" />
      <rect x="358.40" y="358.40" width="2508.80" height="358.40" />
      <rect x="5376.00" y="358.40" width="716.80" height="358.40" />
      <rect x="6809.60" y="358.40" width="716.80" height="358.40" />
      <rect x="8243.20" y="358.40" width="716.80" height="358.40" />
      <rect x="9676.80" y="358.40" width="2508.80" height="358.40" />
      <rect x="358.40" y="716.80" width="358.40" height="1792.00" />
      <rect x="2508.80" y="716.80" width="358.40" height="1792.00" />
      <rect x="3225.60" y="716.80" width="358.40" height="358.40" />
      <rect x="3942.40" y="716.80" width="1433.60" height="358.40" />
      <rect x="5734.40" y="716.80" width="1792.00" height="358.40" />
      <rect x="8601.60" y="716.80" width="358.40" height="358.40" />
      <rect x="9676.80" y="716.80" width="358.40" height="1792.00" />
      <rect x="11827.20" y="716.80" width="358.40" height="1792.00" />
      <rect x="1075.20" y="1075.20" width="1075.20" height="1075.20" />
      <rect x="3584.00" y="1075.20" width="358.40" height="358.40" />
      <rect x="5734.40" y="1075.20" width="716.80" height="358.40" />
      <rect x="8960.00" y="1075.20" width="358.40" height="716.80" />
      <rect x="10393.60" y="1075.20" width="1075.20" height="1075.20" />
      <rect x="4300.80" y="1433.60" width="1075.20" height="358.40" />
      <rect x="5734.40" y="1433.60" width="358.40" height="358.40" />
      <rect x="7168.00" y="1433.60" width="358.40" height="358.40" />
      <rect x="3225.60" y="1792.00" width="716.80" height="358.40" />
      <rect x="4300.80" y="1792.00" width="358.40" height="358.40" />
      <rect x="5017.60" y="1792.00" width="358.40" height="358.40" />
      <rect x="6451.20" y="1792.00" width="1075.20" height="358.40" />
      <rect x="8243.20" y="1792.00" width="716.80" height="358.40" />
      <rect x="3942.40" y="2150.40" width="358.40" height="716.80" />
      <rect x="4659.20" y="2150.40" width="358.40" height="716.80" />
      <rect x="5376.00" y="2150.40" width="358.40" height="716.80" />
      <rect x="6451.20" y="2150.40" width="358.40" height="358.40" />
      <rect x="7168.00" y="2150.40" width="1075.20" height="358.40" />
      <rect x="8601.60" y="2150.40" width="716.80" height="358.40" />
      <rect x="358.40" y="2508.80" width="2508.80" height="358.40" />
      <rect x="3225.60" y="2508.80" width="358.40" height="358.40" />
      <rect x="6092.80" y="2508.80" width="358.40" height="358.40" />
      <rect x="6809.60" y="2508.80" width="358.40" height="358.40" />
      <rect x="7526.40" y="2508.80" width="358.40" height="358.40" />
      <rect x="8243.20" y="2508.80" width="358.40" height="358.40" />
      <rect x="8960.00" y="2508.80" width="358.40" height="358.40" />
      <rect x="9676.80" y="2508.80" width="2508.80" height="358.40" />
      <rect x="3584.00" y="2867.20" width="716.80" height="716.80" />
      <rect x="5017.60" y="2867.20" width="716.80" height="358.40" />
      <rect x="6092.80" y="2867.20" width="716.80" height="358.40" />
      <rect x="7884.80" y="2867.20" width="1433.60" height="358.40" />
      <rect x="358.40" y="3225.60" width="358.40" height="1075.20" />
      <rect x="1075.20" y="3225.60" width="358.40" height="358.40" />
      <rect x="1792.00" y="3225.60" width="358.40" height="358.40" />
      <rect x="2508.80" y="3225.60" width="358.40" height="358.40" />
      <rect x="4659.20" y="3225.60" width="716.80" height="358.40" />
      <rect x="5734.40" y="3225.60" width="358.40" height="358.40" />
      <rect x="6451.20" y="3225.60" width="358.40" height="358.40" />
      <rect x="7884.80" y="3225.60" width="358.40" height="358.40" />
      <rect x="8960.00" y="3225.60" width="358.40" height="358.40" />
      <rect x="10393.60" y="3225.60" width="358.40" height="358.40" />
      <rect x="11468.80" y="3225.60" width="358.40" height="358.40" />
      <rect x="1075.20" y="3584.00" width="716.80" height="358.40" />
      <rect x="2150.40" y="3584.00" width="358.40" height="358.40" />
      <rect x="2867.20" y="3584.00" width="716.80" height="358.40" />
      <rect x="6092.80" y="3584.00" width="358.40" height="358.40" />
      <rect x="6809.60" y="3584.00" width="358.40" height="358.40" />
      <rect x="7526.40" y="3584.00" width="358.40" height="358.40" />
      <rect x="8243.20" y="3584.00" width="358.40" height="358.40" />
      <rect x="8960.00" y="3584.00" width="1433.60" height="358.40" />
      <rect x="11827.20" y="3584.00" width="358.40" height="358.40" />
      <rect x="1433.60" y="3942.40" width="716.80" height="358.40" />
      <rect x="2508.80" y="3942.40" width="358.40" height="358.40" />
      <rect x="3225.60" y="3942.40" width="1433.60" height="358.40" />
      <rect x="5017.60" y="3942.40" width="358.40" height="358.40" />
      <rect x="7884.80" y="3942.40" width="358.40" height="358.40" />
      <rect x="9676.80" y="3942.40" width="716.80" height="358.40" />
      <rect x="11110.40" y="3942.40" width="1075.20" height="358.40" />
      <rect x="358.40" y="4300.80" width="716.80" height="716.80" />
      <rect x="1433.60" y="4300.80" width="358.40" height="358.40" />
      <rect x="2867.20" y="4300.80" width="358.40" height="358.40" />
      <rect x="4659.20" y="4300.80" width="358.40" height="358.40" />
      <rect x="6092.80" y="4300.80" width="1433.60" height="358.40" />
      <rect x="7884.80" y="4300.80" width="1433.60" height="358.40" />
      <rect x="9676.80" y="4300.80" width="358.40" height="358.40" />
      <rect x="10393.60" y="4300.80" width="358.40" height="358.40" />
      <rect x="2508.80" y="4659.20" width="358.40" height="358.40" />
      <rect x="3225.60" y="4659.20" width="1433.60" height="358.40" />
      <rect x="5734.40" y="4659.20" width="1075.20" height="358.40" />
      <rect x="7168.00" y="4659.20" width="1075.20" height="358.40" />
      <rect x="8960.00" y="4659.20" width="1075.20" height="716.80" />
      <rect x="10752.00" y="4659.20" width="358.40" height="716.80" />
      <rect x="11468.80" y="4659.20" width="716.80" height="358.40" />
      <rect x="358.40" y="5017.60" width="358.40" height="1433.60" />
      <rect x="2150.40" y="5017.60" width="358.40" height="358.40" />
      <rect x="3225.60" y="5017.60" width="358.40" height="358.40" />
      <rect x="3942.40" y="5017.60" width="1433.60" height="358.40" />
      <rect x="5734.40" y="5017.60" width="358.40" height="358.40" />
      <rect x="6451.20" y="5017.60" width="358.40" height="358.40" />
      <rect x="7526.40" y="5017.60" width="1075.20" height="358.40" />
      <rect x="11827.20" y="5017.60" width="358.40" height="358.40" />
      <rect x="1075.20" y="5376.00" width="1075.20" height="716.80" />
      <rect x="2508.80" y="5376.00" width="1075.20" height="358.40" />
      <rect x="3942.40" y="5376.00" width="358.40" height="358.40" />
      <rect x="4659.20" y="5376.00" width="358.40" height="358.40" />
      <rect x="6092.80" y="5376.00" width="358.40" height="358.40" />
      <rect x="7884.80" y="5376.00" width="358.40" height="716.80" />
      <rect x="9318.40" y="5376.00" width="358.40" height="358.40" />
      <rect x="10035.20" y="5376.00" width="716.80" height="358.40" />
      <rect x="11468.80" y="5376.00" width="716.80" height="358.40" />
      <rect x="3225.60" y="5734.40" width="358.40" height="358.40" />
      <rect x="4659.20" y="5734.40" width="2867.20" height="358.40" />
      <rect x="9676.80" y="5734.40" width="358.40" height="358.40" />
      <rect x="10393.60" y="5734.40" width="358.40" height="358.40" />
      <rect x="11468.80" y="5734.40" width="358.40" height="358.40" />
      <rect x="1075.20" y="6092.80" width="716.80" height="358.40" />
      <rect x="2150.40" y="6092.80" width="1075.20" height="358.40" />
      <rect x="3584.00" y="6092.80" width="2150.40" height="358.40" />
      <rect x="6092.80" y="6092.80" width="716.80" height="358.40" />
      <rect x="7526.40" y="6092.80" width="716.80" height="716.80" />
      <rect x="8960.00" y="6092.80" width="1075.20" height="358.40" />
      <rect x="716.80" y="6451.20" width="716.80" height="358.40" />
      <rect x="1792.00" y="6451.20" width="716.80" height="358.40" />
      <rect x="3584.00" y="6451.20" width="1075.20" height="358.40" />
      <rect x="5017.60" y="6451.20" width="358.40" height="358.40" />
      <rect x="8960.00" y="6451.20" width="1433.60" height="358.40" />
      <rect x="11468.80" y="6451.20" width="716.80" height="358.40" />
      <rect x="1075.20" y="6809.60" width="358.40" height="358.40" />
      <rect x="1792.00" y="6809.60" width="358.40" height="358.40" />
      <rect x="2508.80" y="6809.60" width="358.40" height="358.40" />
      <rect x="3584.00" y="6809.60" width="358.40" height="358.40" />
      <rect x="4300.80" y="6809.60" width="716.80" height="358.40" />
      <rect x="7884.80" y="6809.60" width="716.80" height="358.40" />
      <rect x="9318.40" y="6809.60" width="358.40" height="716.80" />
      <rect x="11110.40" y="6809.60" width="1075.20" height="358.40" />
      <rect x="358.40" y="7168.00" width="358.40" height="358.40" />
      <rect x="1792.00" y="7168.00" width="716.80" height="358.40" />
      <rect x="2867.20" y="7168.00" width="2150.40" height="358.40" />
      <rect x="5376.00" y="7168.00" width="358.40" height="358.40" />
      <rect x="6092.80" y="7168.00" width="1075.20" height="358.40" />
      <rect x="7526.40" y="7168.00" width="1075.20" height="358.40" />
      <rect x="10035.20" y="7168.00" width="716.80" height="358.40" />
      <rect x="11468.80" y="7168.00" width="358.40" height="358.40" />
      <rect x="358.40" y="7526.40" width="716.80" height="358.40" />
      <rect x="1433.60" y="7526.40" width="716.80" height="358.40" />
      <rect x="2508.80" y="7526.40" width="716.80" height="358.40" />
      <rect x="3584.00" y="7526.40" width="358.40" height="358.40" />
      <rect x="5376.00" y="7526.40" width="716.80" height="358.40" />
      <rect x="6451.20" y="7526.40" width="358.40" height="358.40" />
      <rect x="7526.40" y="7526.40" width="716.80" height="358.40" />
      <rect x="8601.60" y="7526.40" width="358.40" height="358.40" />
      <rect x="9318.40" y="7526.40" width="716.80" height="358.40" />
      <rect x="10752.00" y="7526.40" width="358.40" height="358.40" />
      <rect x="11468.80" y="7526.40" width="716.80" height="358.40" />
      <rect x="1075.20" y="7884.80" width="1075.20" height="358.40" />
      <rect x="5017.60" y="7884.80" width="358.40" height="716.80" />
      <rect x="6092.80" y="7884.80" width="716.80" height="358.40" />
      <rect x="7526.40" y="7884.80" width="1075.20" height="358.40" />
      <rect x="8960.00" y="7884.80" width="1433.60" height="358.40" />
      <rect x="10752.00" y="7884.80" width="1433.60" height="716.80" />
      <rect x="358.40" y="8243.20" width="358.40" height="358.40" />
      <rect x="1075.20" y="8243.20" width="358.40" height="358.40" />
      <rect x="2508.80" y="8243.20" width="358.40" height="358.40" />
      <rect x="3584.00" y="8243.20" width="358.40" height="358.40" />
      <rect x="6092.80" y="8243.20" width="1075.20" height="358.40" />
      <rect x="7526.40" y="8243.20" width="358.40" height="358.40" />
      <rect x="9318.40" y="8243.20" width="358.40" height="358.40" />
      <rect x="10035.20" y="8243.20" width="358.40" height="358.40" />
      <rect x="716.80" y="8601.60" width="1433.60" height="358.40" />
      <rect x="2867.20" y="8601.60" width="2508.80" height="358.40" />
      <rect x="6092.80" y="8601.60" width="716.80" height="358.40" />
      <rect x="7526.40" y="8601.60" width="1075.20" height="358.40" />
      <rect x="11827.20" y="8601.60" width="358.40" height="358.40" />
      <rect x="358.40" y="8960.00" width="358.40" height="358.40" />
      <rect x="1792.00" y="8960.00" width="358.40" height="358.40" />
      <rect x="2508.80" y="8960.00" width="358.40" height="358.40" />
      <rect x="3225.60" y="8960.00" width="1075.20" height="358.40" />
      <rect x="4659.20" y="8960.00" width="358.40" height="358.40" />
      <rect x="5734.40" y="8960.00" width="1433.60" height="358.40" />
      <rect x="7526.40" y="8960.00" width="716.80" height="716.80" />
      <rect x="8960.00" y="8960.00" width="1792.00" height="358.40" />
      <rect x="3225.60" y="9318.40" width="716.80" height="358.40" />
      <rect x="4300.80" y="9318.40" width="1075.20" height="358.40" />
      <rect x="6092.80" y="9318.40" width="358.40" height="358.40" />
      <rect x="8601.60" y="9318.40" width="716.80" height="716.80" />
      <rect x="10393.60" y="9318.40" width="716.80" height="358.40" />
      <rect x="11468.80" y="9318.40" width="716.80" height="358.40" />
      <rect x="358.40" y="9676.80" width="2508.80" height="358.40" />
      <rect x="3584.00" y="9676.80" width="1792.00" height="358.40" />
      <rect x="6451.20" y="9676.80" width="358.40" height="358.40" />
      <rect x="7526.40" y="9676.80" width="358.40" height="358.40" />
      <rect x="9676.80" y="9676.80" width="358.40" height="358.40" />
      <rect x="10393.60" y="9676.80" width="358.40" height="716.80" />
      <rect x="11110.40" y="9676.80" width="1075.20" height="358.40" />
      <rect x="358.40" y="10035.20" width="358.40" height="1792.00" />
      <rect x="2508.80" y="10035.20" width="358.40" height="1792.00" />
      <rect x="3584.00" y="10035.20" width="716.80" height="358.40" />
      <rect x="4659.20" y="10035.20" width="716.80" height="716.80" />
      <rect x="5734.40" y="10035.20" width="358.40" height="358.40" />
      <rect x="6451.20" y="10035.20" width="716.80" height="358.40" />
      <rect x="7526.40" y="10035.20" width="1075.20" height="358.40" />
      <rect x="8960.00" y="10035.20" width="358.40" height="358.40" />
      <rect x="11468.80" y="10035.20" width="358.40" height="716.80" />
      <rect x="1075.20" y="10393.60" width="1075.20" height="1075.20" />
      <rect x="3225.60" y="10393.60" width="358.40" height="358.40" />
      <rect x="3942.40" y="10393.60" width="358.40" height="358.40" />
      <rect x="5734.40" y="10393.60" width="1075.20" height="358.40" />
      <rect x="7168.00" y="10393.60" width="1075.20" height="358.40" />
      <rect x="8960.00" y="10393.60" width="2150.40" height="358.40" />
      <rect x="4300.80" y="10752.00" width="716.80" height="358.40" />
      <rect x="6092.80" y="10752.00" width="358.40" height="358.40" />
      <rect x="6809.60" y="10752.00" width="358.40" height="358.40" />
      <rect x="7526.40" y="10752.00" width="358.40" height="358.40" />
      <rect x="8243.20" y="10752.00" width="358.40" height="358.40" />
      <rect x="10393.60" y="10752.00" width="358.40" height="1433.60" />
      <rect x="11110.40" y="10752.00" width="358.40" height="358.40" />
      <rect x="11827.20" y="10752.00" width="358.40" height="716.80" />
      <rect x="3225.60" y="11110.40" width="358.40" height="358.40" />
      <rect x="3942.40" y="11110.40" width="358.40" height="358.40" />
      <rect x="5376.00" y="11110.40" width="358.40" height="358.40" />
      <rect x="6451.20" y="11110.40" width="358.40" height="358.40" />
      <rect x="7526.40" y="11110.40" width="716.80" height="358.40" />
      <rect x="8960.00" y="11110.40" width="358.40" height="358.40" />
      <rect x="3584.00" y="11468.80" width="716.80" height="358.40" />
      <rect x="5017.60" y="11468.80" width="1792.00" height="358.40" />
      <rect x="7884.80" y="11468.80" width="358.40" height="358.40" />
      <rect x="8960.00" y="11468.80" width="716.80" height="358.40" />
      <rect x="11468.80" y="11468.80" width="358.40" height="358.40" />
      <rect x="358.40" y="11827.20" width="2508.80" height="358.40" />
      <rect x="3225.60" y="11827.20" width="716.80" height="358.40" />
      <rect x="5376.00" y="11827.20" width="358.40" height="358.40" />
      <rect x="6092.80" y="11827.20" width="716.80" height="358.40" />
      <rect x="7526.40" y="11827.20" width="2508.80" height="358.40" />
      <rect x="11468.80" y="11827.20" width="716.80" height="358.40" />
   </g>
</svg>
